<?xml version="1.0" encoding="UTF-8"?>
<svg width="120px" height="96px" viewBox="0 0 120 96" version="1.1" xmlns="http://www.w3.org/2000/svg" xmlns:xlink="http://www.w3.org/1999/xlink">
    <!-- Generator: Sketch 52.3 (67297) - http://www.bohemiancoding.com/sketch -->
    <title>cogs-solid</title>
    <desc>Created with Sketch.</desc>
    <g id="Page-1" stroke="none" stroke-width="1" fill="none" fill-rule="evenodd">
        <g id="cogs-solid" fill="#5B4EA0" fill-rule="nonzero">
            <path d="M96.0284452,35.602816 L94.4908181,38.2699365 C93.9282717,39.2584497 92.7281725,39.6687759 91.6593342,39.2771009 C89.4466513,38.4564484 87.421484,37.2814233 85.6400868,35.8079791 C84.7775155,35.0992338 84.552497,33.849604 85.1150434,32.879742 L86.6526705,30.2126215 C85.3588136,28.7205262 84.3462299,26.9859653 83.6711741,25.1021949 L80.5771685,25.1021949 C79.4520755,25.1021949 78.476995,24.3001937 78.2894795,23.1811221 C77.9144485,20.9429791 77.8956969,18.5929289 78.2894795,16.2615299 C78.476995,15.1424584 79.4520755,14.3218059 80.5771685,14.3218059 L83.6711741,14.3218059 C84.3462299,12.4380355 85.3588136,10.7034747 86.6526705,9.21137932 L85.1150434,6.54425886 C84.552497,5.57439688 84.758764,4.32476701 85.6400868,3.61602172 C87.421484,2.14257755 89.4654029,0.96755245 91.6593342,0.146900001 C92.7281725,-0.244775032 93.9282717,0.165551193 94.4908181,1.15406437 L96.0284452,3.82118483 C97.9973579,3.46681218 100.003774,3.46681218 101.972686,3.82118483 L103.510313,1.15406437 C104.07286,0.165551193 105.272959,-0.244775032 106.341797,0.146900001 C108.55448,0.96755245 110.579648,2.14257755 112.361045,3.61602172 C113.223616,4.32476701 113.448635,5.57439688 112.886088,6.54425886 L111.348461,9.21137932 C112.642318,10.7034747 113.654902,12.4380355 114.329957,14.3218059 L117.423963,14.3218059 C118.549056,14.3218059 119.524137,15.1238072 119.711652,16.2428787 C120.086683,18.4810218 120.105435,20.8310719 119.711652,23.162471 C119.524137,24.2815425 118.549056,25.1021949 117.423963,25.1021949 L114.329957,25.1021949 C113.654902,26.9859653 112.642318,28.7205262 111.348461,30.2126215 L112.886088,32.879742 C113.448635,33.849604 113.242368,35.0992338 112.361045,35.8079791 C110.579648,37.2814233 108.535729,38.4564484 106.341797,39.2771009 C105.272959,39.6687759 104.07286,39.2584497 103.510313,38.2699365 L101.972686,35.602816 C100.022525,35.9571887 97.9973579,35.9571887 96.0284452,35.602816 Z M94.0595325,24.6359151 C101.278879,30.156668 109.510809,21.9687947 103.960351,14.7880857 C96.7410041,9.24868171 88.5090739,17.4552062 94.0595325,24.6359151 Z M72.4389961,53.3400996 L78.7582682,56.4734999 C80.6521747,57.555269 81.4772429,59.8493656 80.7271809,61.9009968 C79.058293,66.4145852 75.7767718,70.5551499 72.7390208,74.1734811 C71.3514062,75.8334372 68.9512079,76.2437634 67.0573014,75.1619943 L61.6006005,72.028594 C58.6003526,74.5838073 55.1125644,76.6167873 51.3059999,77.9410219 L51.3059999,84.2078224 C51.3059999,86.3713607 49.7496213,88.2364799 47.6119447,88.6095037 C42.9990635,89.3928538 38.1611638,89.4301562 33.3795187,88.6095037 C31.2230905,88.2364799 29.6292088,86.3900119 29.6292088,84.2078224 L29.6292088,77.9410219 C25.8226443,76.5981361 22.3348561,74.5838073 19.3346082,72.028594 L13.8779073,75.1433431 C12.0027524,76.2251122 9.5838025,75.814786 8.19618784,74.1548299 C5.15843684,70.5364987 1.95192189,66.395934 0.283033998,61.9009968 C-0.467027978,59.8680168 0.358040195,57.5739202 2.25194668,56.4734999 L8.49621263,53.3400996 C7.7649022,49.4420005 7.7649022,45.4319942 8.49621263,41.5152439 L2.25194668,38.3631924 C0.358040195,37.2814233 -0.485779527,34.9873267 0.283033998,32.9543468 C1.95192189,28.4407583 5.15843684,24.3001937 8.19618784,20.6818624 C9.5838025,19.0219063 11.9840008,18.6115801 13.8779073,19.6933492 L19.3346082,22.8267495 C22.3348561,20.2715362 25.8226443,18.2385563 29.6292088,16.9143216 L29.6292088,10.6288699 C29.6292088,8.48398283 31.1668358,6.61886363 33.3045125,6.24583979 C37.9173936,5.46248973 42.7740449,5.42518734 47.55569,6.2271886 C49.7121182,6.60021244 51.3059999,8.44668045 51.3059999,10.6288699 L51.3059999,16.8956704 C55.1125644,18.2385563 58.6003526,20.252885 61.6006005,22.8080983 L67.0573014,19.674698 C68.9324563,18.5929289 71.3514062,19.0032551 72.7390208,20.6632112 C75.7767718,24.2815425 78.9645352,28.4221071 80.6334231,32.9356956 C81.3834851,34.9686755 80.6521747,37.2627721 78.7582682,38.3631924 L72.4389961,41.4965927 C73.1703065,45.413343 73.1703065,49.4233493 72.4389961,53.3400996 Z M50.387174,57.2755011 C61.4880912,42.9140833 45.0054793,26.5196855 30.5667863,37.5611912 C19.465869,51.922609 35.9484809,68.3170068 50.387174,57.2755011 Z M96.0284452,91.351229 L94.4908181,94.0183494 C93.9282717,95.0068626 92.7281725,95.4171888 91.6593342,95.0255138 C89.4466513,94.2048613 87.421484,93.0298362 85.6400868,91.5563921 C84.7775155,90.8476468 84.552497,89.5980169 85.1150434,88.6281549 L86.6526705,85.9610345 C85.3588136,84.4689391 84.3462299,82.7343783 83.6711741,80.8506079 L80.5771685,80.8506079 C79.4520755,80.8506079 78.476995,80.0486066 78.2894795,78.9295351 C77.9144485,76.691392 77.8956969,74.3413418 78.2894795,72.0099428 C78.476995,70.8908713 79.4520755,70.0702189 80.5771685,70.0702189 L83.6711741,70.0702189 C84.3462299,68.1864485 85.3588136,66.4518876 86.6526705,64.9597923 L85.1150434,62.2926718 C84.552497,61.3228098 84.758764,60.07318 85.6400868,59.3644347 C87.421484,57.8909905 89.4654029,56.7159654 91.6593342,55.8953129 C92.7281725,55.5036379 93.9282717,55.9139641 94.4908181,56.9024773 L96.0284452,59.5695978 C97.9973579,59.2152251 100.003774,59.2152251 101.972686,59.5695978 L103.510313,56.9024773 C104.07286,55.9139641 105.272959,55.5036379 106.341797,55.8953129 C108.55448,56.7159654 110.579648,57.8909905 112.361045,59.3644347 C113.223616,60.07318 113.448635,61.3228098 112.886088,62.2926718 L111.348461,64.9597923 C112.642318,66.4518876 113.654902,68.1864485 114.329957,70.0702189 L117.423963,70.0702189 C118.549056,70.0702189 119.524137,70.8722201 119.711652,71.9912917 C120.086683,74.2294347 120.105435,76.5794849 119.711652,78.9108839 C119.524137,80.0299554 118.549056,80.8506079 117.423963,80.8506079 L114.329957,80.8506079 C113.654902,82.7343783 112.642318,84.4689391 111.348461,85.9610345 L112.886088,88.6281549 C113.448635,89.5980169 113.242368,90.8476468 112.361045,91.5563921 C110.579648,93.0298362 108.535729,94.2048613 106.341797,95.0255138 C105.272959,95.4171888 104.07286,95.0068626 103.510313,94.0183494 L101.972686,91.351229 C100.022525,91.7056016 97.9973579,91.7056016 96.0284452,91.351229 Z M94.0595325,80.3656769 C101.278879,85.8864297 109.510809,77.6985564 103.960351,70.5178475 C96.7410041,64.9970946 88.5090739,73.1849679 94.0595325,80.3656769 Z" id="Shape"></path>
        </g>
    </g>
</svg>